<svg width="22" height="26" viewBox="0 0 22 26" fill="none" xmlns="http://www.w3.org/2000/svg">
<path d="M9 26C10.2375 26 11.25 24.9846 11.25 23.7436H6.75C6.75 24.9846 7.7625 26 9 26ZM15.75 19.2308V13.5897C15.75 10.1262 13.9162 7.22667 10.6875 6.45949V5.69231C10.6875 4.7559 9.93375 4 9 4C8.06625 4 7.3125 4.7559 7.3125 5.69231V6.45949C4.095 7.22667 2.25 10.1149 2.25 13.5897V19.2308L0 21.4872V22.6154H18V21.4872L15.75 19.2308ZM13.5 20.359H4.5V13.5897C4.5 10.7918 6.19875 8.51282 9 8.51282C11.8012 8.51282 13.5 10.7918 13.5 13.5897V20.359Z" fill="#303030"/>
<circle cx="19" cy="3" r="3" fill="#FF6240"/>
</svg>
