<svg width="150" height="150" viewBox="0 0 150 150" fill="none" xmlns="http://www.w3.org/2000/svg">
<path d="M108.162 72.3984C108.162 56.1078 75.8953 12.716 74.25 10.5C74.25 10.5299 74.2195 10.5299 74.1891 10.5599H74.25C74.25 10.5599 65.6578 48.6512 56.1211 48.6512C51.7336 48.6512 49.7227 45.5967 48.8086 42.5123C36.9867 59.1024 25.5 78.5074 25.5 91.3243C25.5 117.797 47.3156 139.238 74.25 139.238C101.184 139.238 123 117.797 123 91.3243C123 84.1672 119.405 74.9438 114.195 65.3012C110.995 70.5118 108.162 74.4946 108.162 72.3984Z" fill="url(#paint0_linear_1378_1215)"/>
<path d="M45.3789 103.245C45.3789 88.0771 74.2503 56.8833 74.2503 56.8833C74.2503 56.8833 103.122 88.0771 103.122 103.245C103.122 118.412 90.1897 130.718 74.2503 130.718C58.3109 130.718 45.3789 118.412 45.3789 103.245Z" fill="#FFC01F"/>
<path d="M61.4717 109.872C61.4717 103.066 74.2508 89.0684 74.2508 89.0684C74.2508 89.0684 87.0299 103.066 87.0299 109.872C87.0299 116.678 81.306 122.199 74.2508 122.199C67.1957 122.199 61.4717 116.678 61.4717 109.872Z" fill="url(#paint1_linear_1378_1215)"/>
<defs>
<linearGradient id="paint0_linear_1378_1215" x1="74.25" y1="10.5" x2="74.25" y2="139.238" gradientUnits="userSpaceOnUse">
<stop stop-color="#F45656"/>
<stop offset="0.234375" stop-color="#FE5809" stop-opacity="0.9875"/>
<stop offset="1" stop-color="#F89C26" stop-opacity="0.8"/>
</linearGradient>
<linearGradient id="paint1_linear_1378_1215" x1="74.2508" y1="89.0684" x2="74.2508" y2="122.199" gradientUnits="userSpaceOnUse">
<stop stop-color="#FFD242"/>
<stop offset="0.984375" stop-color="#FFE9A5"/>
</linearGradient>
</defs>
</svg>
