<svg width="150" height="150" viewBox="0 0 150 150" fill="none" xmlns="http://www.w3.org/2000/svg">
<mask id="mask0_1378_1222" style="mask-type:alpha" maskUnits="userSpaceOnUse" x="39" y="21" width="86" height="108">
<path d="M114.515 112.066C113.575 112.178 112.196 112.502 111.733 113.424C111.332 114.234 111.983 115.094 112.071 115.929C112.134 116.565 112.146 117.2 112.046 117.823C111.883 118.995 111.407 120.079 110.705 121.026C109.176 123.108 106.795 124.429 104.452 125.401C100.116 127.195 95.2919 128.068 90.6178 128.392C90.4549 128.404 90.292 128.417 90.1291 128.417C86.3823 128.629 70.2298 125.825 59.6034 121.064C48.9771 116.303 45.8568 109.573 43.5636 105.847C41.283 102.133 37.461 88.598 40.7943 81.3197C40.8319 81.2325 40.8569 81.1452 40.8695 81.0455C42.11 72.5708 51.8968 62.3263 53.7639 61.1922C55.6436 60.0581 70.5305 46.7851 76.0567 42.124C81.2321 38.2232 87.6354 24.5888 88.6379 22.4203C88.7256 22.2209 88.876 22.0464 89.064 21.9218C89.891 21.3609 92.4098 20.0274 94.9912 22.1959C101.169 27.3929 97.2092 40.7033 95.8308 44.1555C94.4398 47.6077 88.475 56.3068 88.8885 57.2789C89.2519 58.4878 91.3948 58.1762 92.1216 58.3881C92.8484 58.5999 123.199 63.6349 123.763 72.8948C123.763 72.8948 124.176 75.1008 123.487 76.7583C122.798 78.4159 123.073 79.7992 123.349 80.2105C124.326 81.6562 124.351 84.4479 124.314 86.093C124.251 89.4455 122.785 92.7855 119.352 93.8573C118.449 94.144 117.911 94.8668 117.986 95.8389C118.048 96.674 118.838 97.1351 119.314 97.7582C120.279 99.0045 124.026 107.704 114.515 112.066Z" fill="#F1C4C3"/>
</mask>
<g mask="url(#mask0_1378_1222)">
<path d="M114.515 112.066C113.575 112.178 112.196 112.502 111.733 113.424C111.332 114.234 111.983 115.094 112.071 115.929C112.134 116.565 112.146 117.2 112.046 117.823C111.883 118.995 111.407 120.079 110.705 121.026C109.176 123.108 106.795 124.429 104.452 125.401C100.116 127.195 95.2919 128.068 90.6178 128.392C90.4549 128.404 90.292 128.417 90.1291 128.417C86.3823 128.629 70.2298 125.825 59.6034 121.064C48.9771 116.303 45.8568 109.573 43.5636 105.847C41.283 102.133 37.461 88.598 40.7943 81.3197C40.8319 81.2325 40.8569 81.1452 40.8695 81.0455C42.11 72.5708 51.8968 62.3263 53.7639 61.1922C55.6436 60.0581 70.5305 46.7851 76.0567 42.124C81.232 38.2232 87.6354 24.5888 88.6379 22.4203C88.7256 22.2209 88.876 22.0464 89.064 21.9218C89.891 21.3609 92.4098 20.0274 94.9912 22.1959C101.169 27.3929 97.2092 40.7033 95.8307 44.1555C94.4398 47.6077 88.475 56.3068 88.8885 57.2789C89.2519 58.4878 91.3947 58.1762 92.1215 58.3881C92.8484 58.5999 123.199 63.6349 123.763 72.8948C123.763 72.8948 124.176 75.1008 123.487 76.7583C122.798 78.4159 123.073 79.7992 123.349 80.2105C124.326 81.6562 124.351 84.4479 124.314 86.093C124.251 89.4455 122.785 92.7855 119.352 93.8574C118.449 94.144 117.91 94.8668 117.986 95.839C118.048 96.674 118.838 97.1351 119.314 97.7582C120.279 99.0045 124.026 107.704 114.515 112.066Z" fill="#FFD5D5"/>
<g filter="url(#filter0_d_1378_1222)">
<path d="M123.196 79.189C119.237 78.9896 115.327 78.4412 111.442 77.8181C109.5 77.494 107.558 77.1575 105.628 76.7463C103.698 76.3599 101.768 75.9362 99.8511 75.4377C99.6255 75.3753 99.4876 75.151 99.5503 74.9267C99.6004 74.7273 99.7884 74.6027 99.9889 74.6151C101.969 74.7273 103.924 74.9391 105.891 75.1759C107.858 75.3878 109.801 75.6869 111.756 75.986C115.653 76.6092 119.525 77.3196 123.347 78.3664C123.572 78.4287 123.71 78.6655 123.648 78.8899C123.572 79.0768 123.397 79.2014 123.196 79.189Z" fill="#E59A98"/>
</g>
</g>
<mask id="mask1_1378_1222" style="mask-type:alpha" maskUnits="userSpaceOnUse" x="39" y="21" width="86" height="108">
<path d="M114.509 112.066C113.569 112.178 112.191 112.502 111.727 113.424C111.326 114.234 111.978 115.094 112.066 115.929C112.128 116.565 112.141 117.2 112.041 117.823C111.878 118.995 111.402 120.079 110.7 121.026C109.171 123.108 106.79 124.429 104.447 125.401C100.111 127.195 95.2865 128.068 90.6125 128.392C90.4496 128.404 90.2867 128.417 90.1237 128.417C86.377 128.629 70.2244 125.825 59.598 121.064C48.9717 116.303 45.8515 109.573 43.5583 105.847C41.2776 102.133 37.4556 88.598 40.7889 81.3197C40.8265 81.2325 40.8516 81.1452 40.8641 81.0455C42.1047 72.5708 51.8914 62.3263 53.7586 61.1922C55.6382 60.0581 70.5251 46.7851 76.0513 42.124C81.2267 38.2232 87.6301 24.5888 88.6325 22.4203C88.7203 22.2209 88.8706 22.0464 89.0586 21.9218C89.8857 21.3609 92.4044 20.0274 94.9858 22.1959C101.164 27.3929 97.2038 40.7033 95.8254 44.1555C94.4344 47.6077 88.4696 56.3068 88.8832 57.2789C89.2466 58.4878 91.3894 58.1762 92.1162 58.3881C92.843 58.5999 123.193 63.6349 123.757 72.8948C123.757 72.8948 124.171 75.1008 123.481 76.7583C122.792 78.4159 123.068 79.7992 123.344 80.2105C124.321 81.6562 124.346 84.4479 124.309 86.093C124.246 89.4455 122.78 92.7855 119.346 93.8573C118.444 94.144 117.905 94.8668 117.98 95.8389C118.043 96.674 118.832 97.1351 119.309 97.7582C120.274 99.0045 124.02 107.704 114.509 112.066Z" fill="#F1C4C3"/>
</mask>
<g mask="url(#mask1_1378_1222)">
<g filter="url(#filter1_d_1378_1222)">
<path d="M117.96 95.8765C114.79 95.9762 111.645 95.7518 108.525 95.4153C106.958 95.2408 105.404 95.0664 103.838 94.8047C102.284 94.5679 100.73 94.3061 99.1889 93.9447C98.9633 93.8949 98.813 93.6581 98.8756 93.4337C98.9257 93.2468 99.0887 93.1097 99.2766 93.1097C100.868 93.0723 102.434 93.1346 104.013 93.2219C105.592 93.2842 107.159 93.4337 108.725 93.5708C111.858 93.8824 114.978 94.2937 118.061 95.0414C118.286 95.0913 118.424 95.3281 118.374 95.5524C118.311 95.7518 118.148 95.8765 117.96 95.8765Z" fill="#E59A98"/>
</g>
</g>
<mask id="mask2_1378_1222" style="mask-type:alpha" maskUnits="userSpaceOnUse" x="39" y="21" width="86" height="108">
<path d="M114.509 112.066C113.569 112.178 112.191 112.502 111.727 113.424C111.326 114.234 111.978 115.094 112.066 115.929C112.128 116.565 112.141 117.2 112.041 117.823C111.878 118.995 111.401 120.079 110.7 121.026C109.171 123.108 106.79 124.429 104.447 125.401C100.111 127.195 95.2865 128.068 90.6124 128.392C90.4495 128.404 90.2866 128.417 90.1237 128.417C86.3769 128.629 70.2244 125.825 59.598 121.064C48.9717 116.303 45.8515 109.573 43.5583 105.847C41.2776 102.133 37.4556 88.598 40.7889 81.3197C40.8265 81.2325 40.8516 81.1452 40.8641 81.0455C42.1047 72.5708 51.8914 62.3263 53.7586 61.1922C55.6382 60.0581 70.5251 46.7851 76.0513 42.124C81.2267 38.2232 87.6301 24.5888 88.6325 22.4203C88.7203 22.2209 88.8706 22.0464 89.0586 21.9218C89.8856 21.3609 92.4044 20.0274 94.9858 22.1959C101.164 27.3929 97.2038 40.7033 95.8254 44.1555C94.4344 47.6077 88.4696 56.3068 88.8832 57.2789C89.2466 58.4878 91.3894 58.1762 92.1162 58.3881C92.843 58.5999 123.193 63.6349 123.757 72.8948C123.757 72.8948 124.171 75.1008 123.481 76.7583C122.792 78.4159 123.068 79.7992 123.344 80.2105C124.321 81.6562 124.346 84.4479 124.309 86.093C124.246 89.4455 122.78 92.7855 119.346 93.8574C118.444 94.144 117.905 94.8668 117.98 95.839C118.043 96.674 118.832 97.1351 119.309 97.7582C120.273 99.0045 124.02 107.704 114.509 112.066Z" fill="#F1C4C3"/>
</mask>
<g mask="url(#mask2_1378_1222)">
<g filter="url(#filter2_d_1378_1222)">
<path d="M111.339 113.698C107.905 113.873 104.497 113.698 101.101 113.437C99.3965 113.3 97.7048 113.15 96.0131 112.926C94.3214 112.726 92.6297 112.489 90.9505 112.165C90.725 112.116 90.5746 111.904 90.6122 111.667C90.6498 111.467 90.8252 111.33 91.0132 111.33C92.73 111.256 94.4342 111.281 96.1384 111.33C97.8426 111.355 99.5469 111.467 101.251 111.58C104.647 111.829 108.043 112.165 111.401 112.851C111.627 112.901 111.777 113.125 111.727 113.349C111.689 113.549 111.527 113.686 111.339 113.698Z" fill="#E59A98"/>
</g>
</g>
<rect x="25.5" y="55.9258" width="27.7478" height="65.3416" rx="1.14123" fill="#EAEDF4"/>
<defs>
<filter id="filter0_d_1378_1222" x="97.8233" y="72.3318" width="27.5511" height="7.99936" filterUnits="userSpaceOnUse" color-interpolation-filters="sRGB">
<feFlood flood-opacity="0" result="BackgroundImageFix"/>
<feColorMatrix in="SourceAlpha" type="matrix" values="0 0 0 0 0 0 0 0 0 0 0 0 0 0 0 0 0 0 127 0" result="hardAlpha"/>
<feOffset dy="-0.570613"/>
<feGaussianBlur stdDeviation="0.85592"/>
<feComposite in2="hardAlpha" operator="out"/>
<feColorMatrix type="matrix" values="0 0 0 0 0.9 0 0 0 0 0.202354 0 0 0 0 0.18375 0 0 0 0.1 0"/>
<feBlend mode="normal" in2="BackgroundImageFix" result="effect1_dropShadow_1378_1222"/>
<feBlend mode="normal" in="SourceGraphic" in2="effect1_dropShadow_1378_1222" result="shape"/>
</filter>
<filter id="filter1_d_1378_1222" x="97.1495" y="90.8162" width="22.9466" height="6.22544" filterUnits="userSpaceOnUse" color-interpolation-filters="sRGB">
<feFlood flood-opacity="0" result="BackgroundImageFix"/>
<feColorMatrix in="SourceAlpha" type="matrix" values="0 0 0 0 0 0 0 0 0 0 0 0 0 0 0 0 0 0 127 0" result="hardAlpha"/>
<feOffset dy="-0.570613"/>
<feGaussianBlur stdDeviation="0.85592"/>
<feComposite in2="hardAlpha" operator="out"/>
<feColorMatrix type="matrix" values="0 0 0 0 0.9 0 0 0 0 0.202354 0 0 0 0 0.18375 0 0 0 0.1 0"/>
<feBlend mode="normal" in2="BackgroundImageFix" result="effect1_dropShadow_1378_1222"/>
<feBlend mode="normal" in="SourceGraphic" in2="effect1_dropShadow_1378_1222" result="shape"/>
</filter>
<filter id="filter2_d_1378_1222" x="88.8946" y="109.001" width="24.5541" height="5.90903" filterUnits="userSpaceOnUse" color-interpolation-filters="sRGB">
<feFlood flood-opacity="0" result="BackgroundImageFix"/>
<feColorMatrix in="SourceAlpha" type="matrix" values="0 0 0 0 0 0 0 0 0 0 0 0 0 0 0 0 0 0 127 0" result="hardAlpha"/>
<feOffset dy="-0.570613"/>
<feGaussianBlur stdDeviation="0.85592"/>
<feComposite in2="hardAlpha" operator="out"/>
<feColorMatrix type="matrix" values="0 0 0 0 0.9 0 0 0 0 0.202354 0 0 0 0 0.18375 0 0 0 0.1 0"/>
<feBlend mode="normal" in2="BackgroundImageFix" result="effect1_dropShadow_1378_1222"/>
<feBlend mode="normal" in="SourceGraphic" in2="effect1_dropShadow_1378_1222" result="shape"/>
</filter>
</defs>
</svg>
