<svg width="47" height="46" viewBox="0 0 47 46" fill="none" xmlns="http://www.w3.org/2000/svg">
<path d="M36.4487 25.4859V41.1763H4.80945V9.79552H16.1544C16.2674 8.20406 16.6516 6.70227 17.2392 5.31255H4.80945C2.3235 5.31255 0.289551 7.32989 0.289551 9.79552V41.1763C0.289551 43.6419 2.3235 45.6592 4.80945 45.6592H36.4487C38.9347 45.6592 40.9686 43.6419 40.9686 41.1763V29.9688L36.4487 25.4859ZM33.0588 36.6933H8.19937L14.4142 28.7809L18.8437 34.0708L25.0586 26.1359L33.0588 36.6933ZM39.3867 16.2734C40.381 14.7044 40.9686 12.8888 40.9686 10.9163C40.9686 5.33497 36.4261 0.82959 30.7989 0.82959C25.1716 0.82959 20.6291 5.33497 20.6291 10.9163C20.6291 16.4975 25.1716 21.0029 30.7763 21.0029C32.765 21.0029 34.6182 20.4201 36.1775 19.4339L43.2286 26.4273L46.4377 23.2444L39.3867 16.2734ZM30.7989 16.52C27.6801 16.52 25.149 14.0095 25.149 10.9163C25.149 7.82301 27.6801 5.31255 30.7989 5.31255C33.9176 5.31255 36.4487 7.82301 36.4487 10.9163C36.4487 14.0095 33.9176 16.52 30.7989 16.52Z" fill="#C9CEDC"/>
</svg>
