<svg width="139" height="20" viewBox="0 0 139 20" fill="none" xmlns="http://www.w3.org/2000/svg">
<path d="M20 10C20 15.5228 15.5228 20 10 20C4.47715 20 0 15.5228 0 10C0 4.47715 4.47715 0 10 0C15.5228 0 20 4.47715 20 10Z" fill="#C0C5CC"/>
<path d="M3.52199 7.67293C3.52199 6.56141 4.42305 5.66035 5.53457 5.66035H14.4654C15.5769 5.66035 16.478 6.56141 16.478 7.67293C16.478 8.78444 15.5769 9.68551 14.4654 9.68551H5.53457C4.42305 9.68551 3.52199 8.78444 3.52199 7.67293Z" fill="white"/>
<path d="M3.52199 12.9106C3.52199 11.7991 4.42305 10.898 5.53457 10.898H9.93708C11.0486 10.898 11.9497 11.7991 11.9497 12.9106C11.9497 14.0221 11.0486 14.9232 9.93708 14.9232H5.53457C4.42305 14.9232 3.52199 14.0221 3.52199 12.9106Z" fill="white"/>
<path d="M25.28 17H28.1V12.4H31.38L33.72 17H36.88L34 11.66C35.62 10.84 36.56 9.18 36.56 7.34C36.56 4.56 34.56 2.4 31.2 2.4H25.28V17ZM30.98 5C32.78 5 33.7 5.92 33.7 7.36C33.7 8.66 32.84 9.82 30.98 9.82H28.1V5H30.98ZM43.3502 17.22C46.6102 17.22 49.0702 14.7 49.0702 11.6C49.0702 8.48 46.5702 5.98 43.3502 5.98C40.1102 5.98 37.6502 8.48 37.6502 11.6C37.6502 14.7 40.1102 17.22 43.3502 17.22ZM43.3702 14.6C41.7102 14.6 40.4102 13.26 40.4102 11.58C40.4102 9.9 41.7102 8.56 43.3702 8.56C45.0102 8.56 46.3302 9.9 46.3302 11.58C46.3302 13.26 45.0102 14.6 43.3702 14.6ZM55.0413 17.22C56.3613 17.22 57.4613 16.62 58.1613 15.64V17L60.9213 16.98V6.18L58.1213 6.2V12.14C58.1213 13.82 57.1613 14.76 55.8613 14.76C54.3813 14.76 53.6613 13.82 53.6613 12.3V6.2H50.8413V12.68C50.8413 15.52 52.3813 17.22 55.0413 17.22ZM63.1269 17H65.9069V11.04C65.9069 9.36 66.9069 8.4 68.2069 8.4C69.6669 8.4 70.4069 9.36 70.4069 10.9V17H73.2269V10.48C73.2269 7.66 71.6069 5.98 69.0469 5.98C67.7069 5.98 66.5869 6.58 65.8869 7.56V6.2H63.1269V17ZM80.2134 17.22C81.6134 17.22 82.8334 16.58 83.5934 15.52V17H86.3134V1.22H83.5934V7.58C82.8534 6.58 81.6734 5.98 80.2534 5.98C77.4934 5.98 75.0134 8.16 75.0134 11.6C75.0134 15.04 77.5534 17.22 80.2134 17.22ZM80.7534 14.62C79.0934 14.62 77.7534 13.28 77.7534 11.58C77.7534 9.88 79.0934 8.54 80.7534 8.54C82.4534 8.54 83.7534 9.9 83.7534 11.58C83.7534 13.26 82.4534 14.62 80.7534 14.62ZM87.8784 8.64H89.8784V13.18C89.8784 16.12 91.1984 17.2 93.4584 17.2C94.4584 17.2 95.3384 16.9 96.0384 16.38L94.7784 14.22C94.4584 14.5 94.1584 14.62 93.7784 14.62C93.0784 14.62 92.5984 14.22 92.5984 13.08V8.64H95.4384V6.2H92.5984V2.26L89.8784 3.86V6.2H87.8784V8.64ZM100.569 17.22C102.269 17.22 103.749 16.46 104.529 15.34V17H107.189V10.36C107.189 7.64 105.369 5.98 102.189 5.98C99.7694 5.98 98.1894 7 97.0894 8.44L99.6294 9.7C100.129 8.8 100.949 8.28 102.169 8.28C103.729 8.28 104.509 9.08 104.509 10.24V10.38H101.669C98.6694 10.38 96.8094 11.76 96.8094 14C96.8094 15.9 98.2094 17.22 100.569 17.22ZM101.369 14.94C100.229 14.94 99.6894 14.54 99.6894 13.76C99.6894 12.92 100.349 12.4 101.989 12.4H104.529V12.98C103.989 14.14 102.689 14.94 101.369 14.94ZM115.458 17.22C118.118 17.22 120.638 15.04 120.638 11.6C120.638 8.16 118.158 5.98 115.438 5.98C113.978 5.98 112.778 6.64 112.058 7.68V1.22H109.318V17H112.038V15.5C112.758 16.58 114.018 17.22 115.458 17.22ZM114.898 14.62C113.198 14.62 111.898 13.26 111.898 11.58C111.898 9.9 113.198 8.54 114.898 8.54C116.558 8.54 117.878 9.88 117.878 11.58C117.878 13.28 116.558 14.62 114.898 14.62ZM122.424 17H125.184V1.24H122.424V17ZM132.706 17.22C135.086 17.22 136.606 16.24 137.686 14.72L135.426 13.4C134.886 14.28 134.026 14.84 132.746 14.84C131.146 14.84 130.006 13.96 129.646 12.56H138.226V11.52C138.226 8.32 135.886 5.98 132.646 5.98C129.426 5.98 126.986 8.48 126.986 11.62C126.986 14.76 129.226 17.22 132.706 17.22ZM132.646 8.32C134.086 8.32 135.126 9.06 135.486 10.4H129.726C130.166 9.14 131.246 8.32 132.646 8.32Z" fill="#C0C5CC"/>
</svg>
