<svg width="119" height="15" viewBox="0 0 119 15" fill="none" xmlns="http://www.w3.org/2000/svg">
<path d="M2.51562 7.93555H5.02051C5.60645 7.93555 6.14551 7.83887 6.6377 7.64551C7.34668 7.36426 7.70117 7.02148 7.70117 6.61719V3.62891C7.70117 3.21875 7.34668 2.87598 6.6377 2.60059C6.14551 2.40723 5.60645 2.31055 5.02051 2.31055H2.51562V7.93555ZM0.757812 14.3516V1.16797L1.68945 0.728516H5.02051C5.90527 0.728516 6.71973 0.883789 7.46387 1.19434C8.79395 1.74512 9.45898 2.55664 9.45898 3.62891V6.61719C9.45898 7.69531 8.79395 8.50684 7.46387 9.05176C7.20605 9.15723 6.93945 9.24512 6.66406 9.31543L9.66992 13.6221L8.12305 14.3516H8.03516L4.65137 9.51758H2.51562V13.5605L0.845703 14.3516H0.757812ZM14.5039 11.2754C14.5039 11.6738 14.8584 12.0166 15.5674 12.3037C16.0596 12.4971 16.5986 12.5938 17.1846 12.5938C17.7705 12.5938 18.3096 12.4971 18.8018 12.3037C19.5107 12.0225 19.8652 11.6797 19.8652 11.2754V3.45312C19.8652 3.05469 19.5107 2.71191 18.8018 2.4248C18.3096 2.23145 17.7705 2.13477 17.1846 2.13477C16.5986 2.13477 16.0596 2.23145 15.5674 2.4248C14.8584 2.70605 14.5039 3.04883 14.5039 3.45312V11.2754ZM12.7461 11.2754C12.7461 11.2754 12.7461 8.66797 12.7461 3.45312C12.7461 2.38086 13.4111 1.56934 14.7412 1.01855C15.4854 0.708008 16.2998 0.552734 17.1846 0.552734C18.0693 0.552734 18.8838 0.708008 19.6279 1.01855C20.958 1.56934 21.623 2.38086 21.623 3.45312V11.2754C21.623 12.3477 20.958 13.1592 19.6279 13.71C18.8838 14.0205 18.0693 14.1758 17.1846 14.1758C16.2998 14.1758 15.4854 14.0205 14.7412 13.71C13.4111 13.1592 12.7461 12.3477 12.7461 11.2754ZM25.1387 1.16797L26.8086 0.376953H26.8965V11.2754C26.8965 11.6797 27.251 12.0225 27.96 12.3037C28.4521 12.4971 28.9912 12.5938 29.5771 12.5938C30.1631 12.5938 30.7021 12.4971 31.1943 12.3037C31.9033 12.0225 32.2578 11.6797 32.2578 11.2754V1.16797L33.9277 0.376953H34.0156V11.2754C34.0156 12.3477 33.3506 13.1592 32.0205 13.71C31.2764 14.0205 30.4619 14.1758 29.5771 14.1758C28.6924 14.1758 27.8779 14.0205 27.1338 13.71C25.8037 13.1592 25.1387 12.3477 25.1387 11.2754V1.16797ZM37.5312 14.3516V3.45312C37.5312 2.38086 38.1963 1.56934 39.5264 1.01855C40.2705 0.708008 41.085 0.552734 41.9697 0.552734C42.8545 0.552734 43.6689 0.708008 44.4131 1.01855C45.7432 1.56934 46.4082 2.38086 46.4082 3.45312V13.5605L44.7383 14.3516H44.6504V3.45312C44.6504 3.04883 44.2959 2.70605 43.5869 2.4248C43.0947 2.23145 42.5557 2.13477 41.9697 2.13477C41.3838 2.13477 40.8447 2.23145 40.3525 2.4248C39.6436 2.70605 39.2891 3.04883 39.2891 3.45312V13.5605L37.6191 14.3516H37.5312ZM51.6816 12.418H54.1865C54.7725 12.418 55.3115 12.3213 55.8037 12.1279C56.5127 11.8467 56.8672 11.5039 56.8672 11.0996V3.62891C56.8672 3.22461 56.5127 2.88184 55.8037 2.60059C55.3174 2.40723 54.7783 2.31055 54.1865 2.31055H51.6816V12.418ZM49.9238 14V1.16797L50.8555 0.728516H54.1865C55.0713 0.728516 55.8857 0.883789 56.6299 1.19434C57.96 1.74512 58.625 2.55664 58.625 3.62891V11.0996C58.625 12.1719 57.96 12.9834 56.6299 13.5342C55.8857 13.8447 55.0713 14 54.1865 14H49.9238ZM71.2197 14.3516V2.32812H67.458V2.24023L68.1699 0.728516H76.7393V0.816406L76.0273 2.32812H72.9775V13.5605L71.3076 14.3516H71.2197ZM77.2227 14.3516V3.45312C77.2227 2.38086 77.8877 1.56934 79.2178 1.01855C79.9619 0.708008 80.7764 0.552734 81.6611 0.552734C82.5459 0.552734 83.3604 0.708008 84.1045 1.01855C85.4346 1.56934 86.0996 2.38086 86.0996 3.45312C86.0996 3.45312 86.0996 6.82227 86.0996 13.5605L84.4297 14.3516H84.3418V8.16406H78.9805V13.5605L77.3105 14.3516H77.2227ZM78.9805 6.56445H84.3418V3.45312C84.3418 3.04883 83.9873 2.70605 83.2783 2.4248C82.7861 2.23145 82.2471 2.13477 81.6611 2.13477C81.0752 2.13477 80.5361 2.23145 80.0439 2.4248C79.335 2.70605 78.9805 3.04883 78.9805 3.45312V6.56445ZM91.373 5.86133H93.8779C94.376 5.86133 94.7832 5.76465 95.0996 5.57129C95.5449 5.29004 95.7676 4.94727 95.7676 4.54297V3.62891C95.7676 3.13672 95.5332 2.79395 95.0645 2.60059C94.5957 2.40723 94.2002 2.31055 93.8779 2.31055H91.373V5.86133ZM91.373 12.418H93.8779C94.4639 12.418 95.0029 12.3213 95.4951 12.1279C96.2041 11.8525 96.5586 11.5098 96.5586 11.0996V8.76172C96.5586 8.35742 96.2041 8.01465 95.4951 7.7334C95.0029 7.54004 94.4639 7.44336 93.8779 7.44336H91.373V12.418ZM89.6152 14V1.16797L90.5469 0.728516H93.8779C94.6221 0.728516 95.3047 0.883789 95.9258 1.19434C96.9922 1.73926 97.5254 2.55078 97.5254 3.62891V4.54297C97.5254 5.21094 97.165 5.86719 96.4443 6.51172C97.6924 7.05664 98.3164 7.80664 98.3164 8.76172V11.0996C98.3164 12.166 97.6514 12.9775 96.3213 13.5342C95.5771 13.8447 94.7627 14 93.8779 14H89.6152ZM101.656 14V1.16797L103.326 0.376953H103.414V12.4004H109.435V12.4883L108.723 14H101.656ZM110.182 14V1.16797L111.113 0.728516H116.686V0.816406L115.974 2.32812H111.939V6.56445H116.686V6.65234L115.974 8.16406H111.939V12.4004H118.153V12.4883L117.441 14H110.182Z" fill="#303030"/>
</svg>
