<svg width="150" height="150" viewBox="0 0 150 150" fill="none" xmlns="http://www.w3.org/2000/svg">
<path d="M129.046 74.9996C129.046 104.848 104.849 129.045 75.0005 129.045C45.1521 129.045 20.9551 104.848 20.9551 74.9996C20.9551 45.1511 45.1521 20.9541 75.0005 20.9541C104.849 20.9541 129.046 45.1511 129.046 74.9996Z" fill="#FFE978" stroke="#FFE55F"/>
<path d="M90.2734 53.1816C90.2734 58.0062 94.1761 61.9089 99.0007 61.9089" stroke="#3F4245" stroke-width="4" stroke-miterlimit="10" stroke-linecap="round"/>
<path d="M58.6374 53.1816C58.6374 58.0062 54.7347 61.9089 49.9102 61.9089" stroke="#3F4245" stroke-width="4" stroke-miterlimit="10" stroke-linecap="round"/>
<path d="M60.818 79.3635C65.0355 79.3635 68.4544 75.9446 68.4544 71.7272C68.4544 67.5097 65.0355 64.0908 60.818 64.0908C56.6006 64.0908 53.1816 67.5097 53.1816 71.7272C53.1816 75.9446 56.6006 79.3635 60.818 79.3635Z" fill="#3F4245"/>
<path d="M89.1823 79.3635C93.3997 79.3635 96.8186 75.9446 96.8186 71.7272C96.8186 67.5097 93.3997 64.0908 89.1823 64.0908C84.9648 64.0908 81.5459 67.5097 81.5459 71.7272C81.5459 75.9446 84.9648 79.3635 89.1823 79.3635Z" fill="#3F4245"/>
<path d="M57.5462 72.8179C59.3536 72.8179 60.8189 71.3527 60.8189 69.5452C60.8189 67.7377 59.3536 66.2725 57.5462 66.2725C55.7387 66.2725 54.2734 67.7377 54.2734 69.5452C54.2734 71.3527 55.7387 72.8179 57.5462 72.8179Z" fill="white"/>
<path d="M62.3185 76.0902C63.5235 76.0902 64.5004 75.1134 64.5004 73.9084C64.5004 72.7034 63.5235 71.7266 62.3185 71.7266C61.1136 71.7266 60.1367 72.7034 60.1367 73.9084C60.1367 75.1134 61.1136 76.0902 62.3185 76.0902Z" fill="white"/>
<path d="M87.2372 73.2898C89.175 73.2898 90.7458 71.7189 90.7458 69.7811C90.7458 67.8433 89.175 66.2725 87.2372 66.2725C85.2994 66.2725 83.7285 67.8433 83.7285 69.7811C83.7285 71.7189 85.2994 73.2898 87.2372 73.2898Z" fill="white"/>
<path d="M92.8635 76.0902C94.0684 76.0902 95.0453 75.1134 95.0453 73.9084C95.0453 72.7034 94.0684 71.7266 92.8635 71.7266C91.6585 71.7266 90.6816 72.7034 90.6816 73.9084C90.6816 75.1134 91.6585 76.0902 92.8635 76.0902Z" fill="white"/>
<path d="M88.0919 93.5462C81.1638 89.1825 69.9291 89.1825 63.001 93.5462" stroke="#F66E05" stroke-width="10" stroke-miterlimit="10" stroke-linecap="round"/>
</svg>
