<svg width="26" height="26" viewBox="0 0 26 26" fill="none" xmlns="http://www.w3.org/2000/svg">
<path d="M20.7345 14.0141C20.7735 13.6891 20.7995 13.3511 20.7995 13.0001C20.7995 12.6491 20.7735 12.3111 20.7215 11.9861L22.9185 10.2701C23.1135 10.1141 23.1655 9.8281 23.0485 9.6071L20.9685 6.0061C20.8385 5.7721 20.5655 5.6941 20.3315 5.7721L17.7445 6.8121C17.1985 6.3961 16.6265 6.0581 15.9895 5.7981L15.5995 3.0421C15.5605 2.7821 15.3395 2.6001 15.0795 2.6001H10.9195C10.6595 2.6001 10.4515 2.7821 10.4125 3.0421L10.0225 5.7981C9.38555 6.0581 8.80055 6.4091 8.26755 6.8121L5.68055 5.7721C5.44655 5.6811 5.17355 5.7721 5.04355 6.0061L2.96355 9.6071C2.83355 9.8411 2.88555 10.1141 3.09355 10.2701L5.29055 11.9861C5.23855 12.3111 5.19955 12.6621 5.19955 13.0001C5.19955 13.3381 5.22555 13.6891 5.27755 14.0141L3.08055 15.7301C2.88555 15.8861 2.83355 16.1721 2.95055 16.3931L5.03055 19.9941C5.16055 20.2281 5.43355 20.3061 5.66755 20.2281L8.25455 19.1881C8.80055 19.6041 9.37255 19.9421 10.0095 20.2021L10.3995 22.9581C10.4515 23.2181 10.6595 23.4001 10.9195 23.4001H15.0795C15.3395 23.4001 15.5605 23.2181 15.5865 22.9581L15.9765 20.2021C16.6135 19.9421 17.1985 19.5911 17.7315 19.1881L20.3185 20.2281C20.5525 20.3191 20.8255 20.2281 20.9555 19.9941L23.0355 16.3931C23.1655 16.1591 23.1135 15.8861 22.9055 15.7301L20.7345 14.0141ZM12.9995 16.9001C10.8545 16.9001 9.09955 15.1451 9.09955 13.0001C9.09955 10.8551 10.8545 9.1001 12.9995 9.1001C15.1445 9.1001 16.8995 10.8551 16.8995 13.0001C16.8995 15.1451 15.1445 16.9001 12.9995 16.9001Z" fill="#3F4245"/>
</svg>
