<svg width="150" height="150" viewBox="0 0 150 150" fill="none" xmlns="http://www.w3.org/2000/svg">
<path d="M129.046 74.9996C129.046 104.848 104.849 129.045 75 129.045C45.1516 129.045 20.9546 104.848 20.9546 74.9996C20.9546 45.1511 45.1516 20.9541 75 20.9541C104.849 20.9541 129.046 45.1511 129.046 74.9996Z" fill="#FFE978" stroke="#FFE55F"/>
<path d="M60.819 74.9993C65.0364 74.9993 68.4553 71.5804 68.4553 67.3629C68.4553 63.1455 65.0364 59.7266 60.819 59.7266C56.6015 59.7266 53.1826 63.1455 53.1826 67.3629C53.1826 71.5804 56.6015 74.9993 60.819 74.9993Z" fill="#3F4245"/>
<path d="M89.1823 75.0003C93.3997 75.0003 96.8186 71.5813 96.8186 67.3639C96.8186 63.1465 93.3997 59.7275 89.1823 59.7275C84.9648 59.7275 81.5459 63.1465 81.5459 67.3639C81.5459 71.5813 84.9648 75.0003 89.1823 75.0003Z" fill="#3F4245"/>
<mask id="mask0_1378_1191" style="mask-type:alpha" maskUnits="userSpaceOnUse" x="53" y="83" width="44" height="18">
<path d="M74.9998 100.09C86.1441 100.09 95.3464 93.8155 96.6578 85.7183C96.8344 84.6279 95.9226 83.7261 94.818 83.7261L55.1816 83.7261C54.0771 83.7261 53.1652 84.6279 53.3418 85.7183C54.6532 93.8155 63.8555 100.09 74.9998 100.09Z" fill="#F66E05"/>
</mask>
<g mask="url(#mask0_1378_1191)">
<path d="M74.9997 100.09C86.731 100.09 96.418 93.815 97.7978 85.7173C97.9833 84.6284 97.0708 83.7261 95.9662 83.7261L54.0332 83.7261C52.9286 83.7261 52.0161 84.6284 52.2017 85.7173C53.5815 93.815 63.2684 100.09 74.9997 100.09Z" fill="#F66E05"/>
</g>
</svg>
